<svg xmlns="http://www.w3.org/2000/svg" version="1.1" xmlns:xlink="http://www.w3.org/1999/xlink" width="1024" height="1024"><svg width="1024" height="1024" viewBox="0 0 1024 1024" fill="none" xmlns="http://www.w3.org/2000/svg">
<path d="M439.455 238.588C471.475 183.137 551.525 183.137 583.545 238.588L880.731 753.237C912.75 808.687 872.725 878 808.685 878H214.314C150.274 878 110.25 808.687 142.27 753.237L439.455 238.588Z" fill="#F51B51"></path>
<path d="M473.642 406.482C473.317 394.298 479.004 388.206 490.702 388.206H529.698C541.397 388.206 547.083 394.298 546.758 406.482L540.178 619.457C539.853 630.017 534.572 635.296 524.336 635.296H496.064C485.828 635.296 480.547 630.017 480.222 619.457L473.642 406.482ZM491.677 737.641C480.304 737.641 474.617 731.549 474.617 719.365V686.712C474.617 674.529 480.304 668.437 491.677 668.437H528.723C540.097 668.437 545.784 674.529 545.784 686.712V719.365C545.784 731.549 540.097 737.641 528.723 737.641H491.677Z" fill="#690000"></path>
</svg><style>@media (prefers-color-scheme: light) { :root { filter: none; } }
@media (prefers-color-scheme: dark) { :root { filter: none; } }
</style></svg>